{
  "source": "C:\\Users\\Peter\\Desktop\\stuff\\MIUN\\quantitative_research\\video_compression\\videos\\UVG\\ReadySteadyGo_1920x1080_120fps_420_8bit_YUV.y4m",
  "output": "C:\\Users\\Peter\\Desktop\\stuff\\MIUN\\quantitative_research\\video_compression\\compressed_videos\\UVG\\vp9\\3\\ReadySteadyGo_1920x1080_120fps_420_8bit_YUV_vp9.webm",
  "codec": "vp9",
  "ok": "[yuv4mpegpipe @ 0000026362a053c0] Stream #0: not enough frames to estimate rate; consider increasing probesize\nInput #0, yuv4mpegpipe, from 'C:\\Users\\Peter\\Desktop\\stuff\\MIUN\\quantitative_research\\video_compression\\videos\\UVG\\ReadySteadyGo_1920x1080_120fps_420_8bit_YUV.y4m':\n  Duration: 00:00:05.00, start: 0.000000, bitrate: 2985989 kb/s\n  Stream #0:0: Video: rawvideo (I420 / 0x30323449), yuv420p(progressive), 1920x1080, 120 fps, 120 tbr, 120 tbn\n[out#0/webm @ 0000026362a09080] Codec AVOption b:a (set bitrate (in bits/s)) has not been used for any stream. The most likely reason is either wrong type (e.g. a video option with no video streams) or that it is a private option of some decoder which was not actually used for any stream.\nStream mapping:\n  Stream #0:0 -> #0:0 (rawvideo (native) -> vp9 (libvpx-vp9))\nPress [q] to stop, [?] for help\n[libvpx-vp9 @ 0000026362a0c100] v1.15.2-100-g40561f514\nOutput #0, webm, to 'C:\\Users\\Peter\\Desktop\\stuff\\MIUN\\quantitative_research\\video_compression\\compressed_videos\\UVG\\vp9\\3\\ReadySteadyGo_1920x1080_120fps_420_8bit_YUV_vp9.webm':\n  Metadata:\n    encoder         : Lavf62.3.100\n  Stream #0:0: Video: vp9, yuv420p(tv, progressive), 1920x1080, q=2-31, 3000 kb/s, 120 fps, 1k tbn\n    Metadata:\n      encoder         : Lavc62.11.100 libvpx-vp9\n    Side data:\n      cpb: bitrate max/min/avg: 0/0/0 buffer size: 3000000 vbv_delay: N/A\nframe=    0 fps=0.0 q=0.0 size=       0KiB time=N/A bitrate=N/A speed=N/A elapsed=0:00:00.51    \nframe=    5 fps=4.9 q=57.0 size=       0KiB time=00:00:00.04 bitrate=  92.4kbits/s speed=0.0404x elapsed=0:00:01.03    \nframe=   10 fps=6.5 q=56.0 size=       0KiB time=00:00:00.08 bitrate=  46.2kbits/s speed=0.0539x elapsed=0:00:01.54    \nframe=   14 fps=6.8 q=56.0 size=       0KiB time=00:00:00.11 bitrate=  33.0kbits/s speed=0.0565x elapsed=0:00:02.06    \nframe=   18 fps=7.0 q=55.0 size=       0KiB time=00:00:00.15 bitrate=  25.7kbits/s speed=0.0583x elapsed=0:00:02.57    \nframe=   22 fps=7.1 q=58.0 size=       0KiB time=00:00:00.18 bitrate=  21.0kbits/s speed=0.0593x elapsed=0:00:03.09    \nframe=   26 fps=7.2 q=59.0 size=       0KiB time=00:00:00.21 bitrate=  17.8kbits/s speed=0.0601x elapsed=0:00:03.60    \nframe=   30 fps=7.3 q=58.0 size=       0KiB time=00:00:00.25 bitrate=  15.4kbits/s speed=0.0605x elapsed=0:00:04.12    \nframe=   34 fps=7.3 q=56.0 size=       0KiB time=00:00:00.28 bitrate=  13.6kbits/s speed=0.061x elapsed=0:00:04.64    \nframe=   38 fps=7.4 q=56.0 size=       0KiB time=00:00:00.31 bitrate=  12.2kbits/s speed=0.0614x elapsed=0:00:05.15    \nframe=   42 fps=7.4 q=56.0 size=       0KiB time=00:00:00.35 bitrate=  11.0kbits/s speed=0.0617x elapsed=0:00:05.66    \nframe=   45 fps=7.3 q=56.0 size=       0KiB time=00:00:00.37 bitrate=  10.3kbits/s speed=0.0606x elapsed=0:00:06.18    \nframe=   49 fps=7.3 q=58.0 size=       0KiB time=00:00:00.40 bitrate=   9.4kbits/s speed=0.061x elapsed=0:00:06.69    \nframe=   53 fps=7.3 q=57.0 size=       0KiB time=00:00:00.44 bitrate=   8.7kbits/s speed=0.0612x elapsed=0:00:07.21    \nframe=   58 fps=7.5 q=58.0 size=       0KiB time=00:00:00.48 bitrate=   8.0kbits/s speed=0.0625x elapsed=0:00:07.73    \nframe=   62 fps=7.5 q=53.0 size=       0KiB time=00:00:00.51 bitrate=   7.4kbits/s speed=0.0626x elapsed=0:00:08.25    \nframe=   66 fps=7.5 q=52.0 size=       0KiB time=00:00:00.55 bitrate=   7.0kbits/s speed=0.0627x elapsed=0:00:08.76    \nframe=   70 fps=7.5 q=54.0 size=       0KiB time=00:00:00.58 bitrate=   6.6kbits/s speed=0.0629x elapsed=0:00:09.27    \nframe=   75 fps=7.6 q=55.0 size=       0KiB time=00:00:00.62 bitrate=   6.2kbits/s speed=0.0637x elapsed=0:00:09.80    \nframe=   79 fps=7.7 q=57.0 size=       0KiB time=00:00:00.65 bitrate=   5.8kbits/s speed=0.0638x elapsed=0:00:10.32    \nframe=   82 fps=7.6 q=57.0 size=       0KiB time=00:00:00.68 bitrate=   5.6kbits/s speed=0.063x elapsed=0:00:10.83    \nframe=   87 fps=7.7 q=57.0 size=       0KiB time=00:00:00.72 bitrate=   5.3kbits/s speed=0.0638x elapsed=0:00:11.35    \nframe=   90 fps=7.6 q=45.0 size=       0KiB time=00:00:00.75 bitrate=   5.1kbits/s speed=0.0631x elapsed=0:00:11.87    \nframe=   95 fps=7.7 q=57.0 size=       0KiB time=00:00:00.79 bitrate=   4.9kbits/s speed=0.0639x elapsed=0:00:12.38    \nframe=   98 fps=7.6 q=58.0 size=       0KiB time=00:00:00.81 bitrate=   4.7kbits/s speed=0.0633x elapsed=0:00:12.90    \nframe=  103 fps=7.7 q=58.0 size=       0KiB time=00:00:00.85 bitrate=   4.5kbits/s speed=0.0639x elapsed=0:00:13.42    \nframe=  107 fps=7.7 q=58.0 size=       0KiB time=00:00:00.89 bitrate=   4.3kbits/s speed=0.064x elapsed=0:00:13.93    \nframe=  111 fps=7.7 q=45.0 size=       0KiB time=00:00:00.92 bitrate=   4.2kbits/s speed=0.064x elapsed=0:00:14.45    \nframe=  116 fps=7.8 q=60.0 size=       0KiB time=00:00:00.96 bitrate=   4.0kbits/s speed=0.0646x elapsed=0:00:14.96    \nframe=  120 fps=7.7 q=60.0 size=       0KiB time=00:00:01.00 bitrate=   3.8kbits/s speed=0.0646x elapsed=0:00:15.48    \nframe=  124 fps=7.8 q=59.0 size=       0KiB time=00:00:01.03 bitrate=   3.7kbits/s speed=0.0646x elapsed=0:00:15.99    \nframe=  128 fps=7.8 q=59.0 size=       0KiB time=00:00:01.06 bitrate=   3.6kbits/s speed=0.0646x elapsed=0:00:16.50    \nframe=  131 fps=7.7 q=58.0 size=     256KiB time=00:00:01.09 bitrate=1921.1kbits/s speed=0.0641x elapsed=0:00:17.03    \nframe=  135 fps=7.7 q=59.0 size=     256KiB time=00:00:01.12 bitrate=1864.1kbits/s speed=0.0641x elapsed=0:00:17.53    \nframe=  139 fps=7.7 q=58.0 size=     256KiB time=00:00:01.15 bitrate=1810.5kbits/s speed=0.0641x elapsed=0:00:18.05    \nframe=  142 fps=7.6 q=58.0 size=     256KiB time=00:00:01.18 bitrate=1772.2kbits/s speed=0.0637x elapsed=0:00:18.58    \nframe=  145 fps=7.6 q=58.0 size=     256KiB time=00:00:01.20 bitrate=1735.6kbits/s speed=0.0633x elapsed=0:00:19.09    \nframe=  147 fps=7.5 q=59.0 size=     256KiB time=00:00:01.22 bitrate=1712.0kbits/s speed=0.0624x elapsed=0:00:19.62    \nframe=  150 fps=7.4 q=45.0 size=     256KiB time=00:00:01.25 bitrate=1677.7kbits/s speed=0.062x elapsed=0:00:20.15    \nframe=  153 fps=7.4 q=60.0 size=     256KiB time=00:00:01.27 bitrate=1644.8kbits/s speed=0.0617x elapsed=0:00:20.67    \nframe=  156 fps=7.4 q=60.0 size=     256KiB time=00:00:01.30 bitrate=1613.2kbits/s speed=0.0613x elapsed=0:00:21.19    \nframe=  158 fps=7.3 q=60.0 size=     256KiB time=00:00:01.31 bitrate=1592.8kbits/s speed=0.0606x elapsed=0:00:21.72    \nframe=  161 fps=7.2 q=60.0 size=     256KiB time=00:00:01.34 bitrate=1563.1kbits/s speed=0.0603x elapsed=0:00:22.23    \nframe=  164 fps=7.2 q=46.0 size=     256KiB time=00:00:01.36 bitrate=1534.5kbits/s speed=0.0601x elapsed=0:00:22.75    \nframe=  167 fps=7.2 q=60.0 size=     256KiB time=00:00:01.39 bitrate=1506.9kbits/s speed=0.0598x elapsed=0:00:23.27    \nframe=  170 fps=7.1 q=61.0 size=     256KiB time=00:00:01.41 bitrate=1480.3kbits/s speed=0.0595x elapsed=0:00:23.79    \nframe=  173 fps=7.1 q=60.0 size=     256KiB time=00:00:01.44 bitrate=1454.7kbits/s speed=0.0593x elapsed=0:00:24.30    \nframe=  177 fps=7.1 q=61.0 size=     256KiB time=00:00:01.47 bitrate=1421.8kbits/s speed=0.0594x elapsed=0:00:24.82    \nframe=  181 fps=7.1 q=60.0 size=     256KiB time=00:00:01.50 bitrate=1390.4kbits/s speed=0.0595x elapsed=0:00:25.34    \nframe=  184 fps=7.1 q=61.0 size=     256KiB time=00:00:01.53 bitrate=1367.7kbits/s speed=0.0593x elapsed=0:00:25.86    \nframe=  189 fps=7.2 q=61.0 size=     256KiB time=00:00:01.57 bitrate=1331.5kbits/s speed=0.0597x elapsed=0:00:26.37    \nframe=  193 fps=7.2 q=62.0 size=     256KiB time=00:00:01.60 bitrate=1303.9kbits/s speed=0.0598x elapsed=0:00:26.89    \nframe=  198 fps=7.2 q=62.0 size=     256KiB time=00:00:01.65 bitrate=1271.0kbits/s speed=0.0602x elapsed=0:00:27.40    \nframe=  202 fps=7.2 q=61.0 size=     256KiB time=00:00:01.68 bitrate=1245.8kbits/s speed=0.0603x elapsed=0:00:27.92    \nframe=  206 fps=7.2 q=48.0 size=     256KiB time=00:00:01.71 bitrate=1221.6kbits/s speed=0.0604x elapsed=0:00:28.44    \nframe=  211 fps=7.3 q=62.0 size=     256KiB time=00:00:01.75 bitrate=1192.7kbits/s speed=0.0607x elapsed=0:00:28.95    \nframe=  215 fps=7.3 q=61.0 size=     256KiB time=00:00:01.79 bitrate=1170.5kbits/s speed=0.0608x elapsed=0:00:29.47    \nframe=  219 fps=7.3 q=62.0 size=     256KiB time=00:00:01.82 bitrate=1149.1kbits/s speed=0.0609x elapsed=0:00:29.98    \nframe=  223 fps=7.3 q=61.0 size=     256KiB time=00:00:01.85 bitrate=1128.5kbits/s speed=0.0609x elapsed=0:00:30.49    \nframe=  227 fps=7.3 q=48.0 size=     256KiB time=00:00:01.89 bitrate=1108.6kbits/s speed=0.061x elapsed=0:00:31.01    \nframe=  232 fps=7.4 q=62.0 size=     256KiB time=00:00:01.93 bitrate=1084.7kbits/s speed=0.0613x elapsed=0:00:31.52    \nframe=  236 fps=7.4 q=62.0 size=     256KiB time=00:00:01.96 bitrate=1066.3kbits/s speed=0.0614x elapsed=0:00:32.04    \nframe=  240 fps=7.4 q=62.0 size=     256KiB time=00:00:02.00 bitrate=1048.6kbits/s speed=0.0614x elapsed=0:00:32.56    \nframe=  245 fps=7.4 q=62.0 size=     256KiB time=00:00:02.04 bitrate=1027.2kbits/s speed=0.0617x elapsed=0:00:33.08    \nframe=  249 fps=7.4 q=61.0 size=     256KiB time=00:00:02.07 bitrate=1010.7kbits/s speed=0.0618x elapsed=0:00:33.58    \nframe=  253 fps=7.4 q=61.0 size=     256KiB time=00:00:02.10 bitrate= 994.7kbits/s speed=0.0618x elapsed=0:00:34.10    \nframe=  256 fps=7.4 q=62.0 size=     256KiB time=00:00:02.13 bitrate= 983.0kbits/s speed=0.0616x elapsed=0:00:34.62    \nframe=  262 fps=7.5 q=62.0 size=     768KiB time=00:00:02.18 bitrate=2881.6kbits/s speed=0.0621x elapsed=0:00:35.14    \nframe=  265 fps=7.4 q=61.0 size=     768KiB time=00:00:02.20 bitrate=2849.0kbits/s speed=0.0619x elapsed=0:00:35.65    \nframe=  269 fps=7.4 q=61.0 size=     768KiB time=00:00:02.24 bitrate=2806.6kbits/s speed=0.062x elapsed=0:00:36.16    \nframe=  273 fps=7.4 q=61.0 size=     768KiB time=00:00:02.27 bitrate=2765.5kbits/s speed=0.062x elapsed=0:00:36.68    \nframe=  278 fps=7.5 q=62.0 size=     768KiB time=00:00:02.31 bitrate=2715.7kbits/s speed=0.0623x elapsed=0:00:37.20    \nframe=  281 fps=7.5 q=61.0 size=     768KiB time=00:00:02.34 bitrate=2686.7kbits/s speed=0.0621x elapsed=0:00:37.71    \nframe=  286 fps=7.5 q=62.0 size=     768KiB time=00:00:02.38 bitrate=2639.8kbits/s speed=0.0623x elapsed=0:00:38.22    \nframe=  290 fps=7.5 q=62.0 size=     768KiB time=00:00:02.41 bitrate=2603.4kbits/s speed=0.0624x elapsed=0:00:38.75    \nframe=  294 fps=7.5 q=46.0 size=     768KiB time=00:00:02.45 bitrate=2567.9kbits/s speed=0.0624x elapsed=0:00:39.26    \nframe=  298 fps=7.5 q=61.0 size=     768KiB time=00:00:02.48 bitrate=2533.5kbits/s speed=0.0624x elapsed=0:00:39.77    \nframe=  303 fps=7.5 q=61.0 size=     768KiB time=00:00:02.52 bitrate=2491.7kbits/s speed=0.0627x elapsed=0:00:40.29    \nframe=  307 fps=7.5 q=62.0 size=     768KiB time=00:00:02.55 bitrate=2459.2kbits/s speed=0.0627x elapsed=0:00:40.80    \nframe=  310 fps=7.5 q=61.0 size=     768KiB time=00:00:02.58 bitrate=2435.4kbits/s speed=0.0625x elapsed=0:00:41.32    \nframe=  315 fps=7.5 q=61.0 size=     768KiB time=00:00:02.62 bitrate=2396.7kbits/s speed=0.0627x elapsed=0:00:41.84    \nframe=  319 fps=7.5 q=61.0 size=     768KiB time=00:00:02.65 bitrate=2366.7kbits/s speed=0.0628x elapsed=0:00:42.35    \nframe=  323 fps=7.5 q=61.0 size=     768KiB time=00:00:02.69 bitrate=2337.4kbits/s speed=0.0628x elapsed=0:00:42.86    \nframe=  327 fps=7.5 q=62.0 size=     768KiB time=00:00:02.72 bitrate=2308.8kbits/s speed=0.0628x elapsed=0:00:43.38    \nframe=  331 fps=7.5 q=52.0 size=     768KiB time=00:00:02.75 bitrate=2280.9kbits/s speed=0.0628x elapsed=0:00:43.90    \nframe=  335 fps=7.5 q=62.0 size=     768KiB time=00:00:02.79 bitrate=2253.7kbits/s speed=0.0628x elapsed=0:00:44.42    \nframe=  339 fps=7.5 q=62.0 size=     768KiB time=00:00:02.82 bitrate=2227.1kbits/s speed=0.0628x elapsed=0:00:44.95    \nframe=  343 fps=7.5 q=62.0 size=     768KiB time=00:00:02.85 bitrate=2201.1kbits/s speed=0.0629x elapsed=0:00:45.46    \nframe=  346 fps=7.5 q=62.0 size=     768KiB time=00:00:02.88 bitrate=2182.0kbits/s speed=0.0627x elapsed=0:00:45.98    \nframe=  351 fps=7.5 q=62.0 size=     768KiB time=00:00:02.92 bitrate=2150.9kbits/s speed=0.0629x elapsed=0:00:46.49    \nframe=  354 fps=7.5 q=62.0 size=     768KiB time=00:00:02.95 bitrate=2132.7kbits/s speed=0.0627x elapsed=0:00:47.01    \nframe=  358 fps=7.5 q=62.0 size=     768KiB time=00:00:02.98 bitrate=2108.9kbits/s speed=0.0628x elapsed=0:00:47.52    \nframe=  362 fps=7.5 q=62.0 size=     768KiB time=00:00:03.01 bitrate=2085.6kbits/s speed=0.0628x elapsed=0:00:48.04    \nframe=  365 fps=7.5 q=63.0 size=     768KiB time=00:00:03.04 bitrate=2068.4kbits/s speed=0.0626x elapsed=0:00:48.56    \nframe=  370 fps=7.5 q=62.0 size=     768KiB time=00:00:03.08 bitrate=2040.5kbits/s speed=0.0628x elapsed=0:00:49.07    \nframe=  374 fps=7.5 q=63.0 size=     768KiB time=00:00:03.11 bitrate=2018.6kbits/s speed=0.0628x elapsed=0:00:49.58    \nframe=  378 fps=7.5 q=63.0 size=     768KiB time=00:00:03.15 bitrate=1997.3kbits/s speed=0.0629x elapsed=0:00:50.11    \nframe=  382 fps=7.5 q=63.0 size=     768KiB time=00:00:03.18 bitrate=1976.4kbits/s speed=0.0629x elapsed=0:00:50.62    \nframe=  385 fps=7.5 q=51.0 size=     768KiB time=00:00:03.20 bitrate=1961.0kbits/s speed=0.0627x elapsed=0:00:51.13    \nframe=  390 fps=7.6 q=63.0 size=    1024KiB time=00:00:03.25 bitrate=2581.1kbits/s speed=0.0629x elapsed=0:00:51.64    \nframe=  394 fps=7.6 q=63.0 size=    1024KiB time=00:00:03.28 bitrate=2554.9kbits/s speed=0.0629x elapsed=0:00:52.17    \nframe=  398 fps=7.6 q=63.0 size=    1024KiB time=00:00:03.31 bitrate=2529.2kbits/s speed=0.0629x elapsed=0:00:52.68    \nframe=  402 fps=7.6 q=63.0 size=    1024KiB time=00:00:03.35 bitrate=2504.1kbits/s speed=0.063x elapsed=0:00:53.20    \nframe=  405 fps=7.5 q=63.0 size=    1024KiB time=00:00:03.37 bitrate=2485.5kbits/s speed=0.0628x elapsed=0:00:53.71    \nframe=  410 fps=7.6 q=63.0 size=    1024KiB time=00:00:03.41 bitrate=2455.2kbits/s speed=0.063x elapsed=0:00:54.22    \nframe=  414 fps=7.6 q=63.0 size=    1024KiB time=00:00:03.45 bitrate=2431.5kbits/s speed=0.063x elapsed=0:00:54.75    \nframe=  418 fps=7.6 q=63.0 size=    1024KiB time=00:00:03.48 bitrate=2408.2kbits/s speed=0.063x elapsed=0:00:55.26    \nframe=  422 fps=7.6 q=62.0 size=    1024KiB time=00:00:03.51 bitrate=2385.4kbits/s speed=0.063x elapsed=0:00:55.77    \nframe=  426 fps=7.6 q=63.0 size=    1024KiB time=00:00:03.55 bitrate=2363.0kbits/s speed=0.0631x elapsed=0:00:56.29    \nframe=  430 fps=7.6 q=62.0 size=    1024KiB time=00:00:03.58 bitrate=2341.0kbits/s speed=0.0631x elapsed=0:00:56.81    \nframe=  433 fps=7.6 q=63.0 size=    1024KiB time=00:00:03.60 bitrate=2324.8kbits/s speed=0.0629x elapsed=0:00:57.32    \nframe=  438 fps=7.6 q=63.0 size=    1024KiB time=00:00:03.64 bitrate=2303.5kbits/s speed=0.063x elapsed=0:00:57.84    \nframe=  441 fps=7.6 q=52.0 size=    1024KiB time=00:00:03.67 bitrate=2282.6kbits/s speed=0.063x elapsed=0:00:58.35    \nframe=  445 fps=7.6 q=63.0 size=    1024KiB time=00:00:03.70 bitrate=2262.1kbits/s speed=0.063x elapsed=0:00:58.87    \nframe=  448 fps=7.5 q=52.0 size=    1024KiB time=00:00:03.73 bitrate=2246.9kbits/s speed=0.0629x elapsed=0:00:59.38    \nframe=  452 fps=7.5 q=63.0 size=    1024KiB time=00:00:03.76 bitrate=2227.1kbits/s speed=0.0629x elapsed=0:00:59.91    \nframe=  455 fps=7.5 q=53.0 size=    1024KiB time=00:00:03.79 bitrate=2212.4kbits/s speed=0.0627x elapsed=0:01:00.42    \nframe=  459 fps=7.5 q=63.0 size=    1024KiB time=00:00:03.82 bitrate=2193.1kbits/s speed=0.0628x elapsed=0:01:00.93    \nframe=  462 fps=7.5 q=53.0 size=    1024KiB time=00:00:03.85 bitrate=2178.9kbits/s speed=0.0626x elapsed=0:01:01.45    \nframe=  465 fps=7.5 q=62.0 size=    1024KiB time=00:00:03.87 bitrate=2164.8kbits/s speed=0.0625x elapsed=0:01:01.97    \nframe=  468 fps=7.5 q=62.0 size=    1024KiB time=00:00:03.90 bitrate=2150.9kbits/s speed=0.0624x elapsed=0:01:02.48    \nframe=  470 fps=7.5 q=62.0 size=    1024KiB time=00:00:03.91 bitrate=2141.8kbits/s speed=0.0622x elapsed=0:01:03.01    \nframe=  473 fps=7.4 q=62.0 size=    1024KiB time=00:00:03.94 bitrate=2128.2kbits/s speed=0.062x elapsed=0:01:03.52    \nframe=  475 fps=7.4 q=62.0 size=    1024KiB time=00:00:03.95 bitrate=2119.2kbits/s speed=0.0618x elapsed=0:01:04.05    \nframe=  478 fps=7.4 q=61.0 size=    1024KiB time=00:00:03.98 bitrate=2105.9kbits/s speed=0.0617x elapsed=0:01:04.56    \nframe=  481 fps=7.4 q=62.0 size=    1024KiB time=00:00:04.00 bitrate=2092.8kbits/s speed=0.0616x elapsed=0:01:05.07    \nframe=  483 fps=7.4 q=52.0 size=    1024KiB time=00:00:04.02 bitrate=2084.1kbits/s speed=0.0614x elapsed=0:01:05.59    \nframe=  486 fps=7.4 q=62.0 size=    1024KiB time=00:00:04.05 bitrate=2071.3kbits/s speed=0.0613x elapsed=0:01:06.10    \nframe=  489 fps=7.3 q=62.0 size=    1024KiB time=00:00:04.07 bitrate=2058.6kbits/s speed=0.0612x elapsed=0:01:06.62    \nframe=  491 fps=7.3 q=62.0 size=    1024KiB time=00:00:04.09 bitrate=2050.2kbits/s speed=0.0609x elapsed=0:01:07.13    \nframe=  494 fps=7.3 q=61.0 size=    1024KiB time=00:00:04.11 bitrate=2037.7kbits/s speed=0.0608x elapsed=0:01:07.65    \nframe=  496 fps=7.3 q=62.0 size=    1024KiB time=00:00:04.13 bitrate=2029.5kbits/s speed=0.0606x elapsed=0:01:08.17    \nframe=  499 fps=7.3 q=61.0 size=    1024KiB time=00:00:04.15 bitrate=2017.3kbits/s speed=0.0605x elapsed=0:01:08.69    \nframe=  502 fps=7.3 q=61.0 size=    1024KiB time=00:00:04.18 bitrate=2005.2kbits/s speed=0.0604x elapsed=0:01:09.21    \nframe=  503 fps=7.2 q=61.0 size=    1024KiB time=00:00:04.19 bitrate=2001.3kbits/s speed=0.0601x elapsed=0:01:09.75    \nframe=  506 fps=7.2 q=59.0 size=    1024KiB time=00:00:04.21 bitrate=1989.4kbits/s speed=0.06x elapsed=0:01:10.26    \nframe=  509 fps=7.2 q=60.0 size=    1024KiB time=00:00:04.24 bitrate=1977.7kbits/s speed=0.0599x elapsed=0:01:10.77    \nframe=  511 fps=7.2 q=60.0 size=    1024KiB time=00:00:04.25 bitrate=1969.9kbits/s speed=0.0597x elapsed=0:01:11.29    \nframe=  512 fps=7.1 q=61.0 size=    1024KiB time=00:00:04.26 bitrate=1966.1kbits/s speed=0.0594x elapsed=0:01:11.80    \nframe=  516 fps=7.1 q=61.0 size=    1536KiB time=00:00:04.30 bitrate=2926.3kbits/s speed=0.0594x elapsed=0:01:12.33    \nframe=  519 fps=7.1 q=61.0 size=    1536KiB time=00:00:04.32 bitrate=2909.3kbits/s speed=0.0594x elapsed=0:01:12.86    \nframe=  522 fps=7.1 q=60.0 size=    1536KiB time=00:00:04.35 bitrate=2892.6kbits/s speed=0.0593x elapsed=0:01:13.39    \nframe=  524 fps=7.1 q=61.0 size=    1536KiB time=00:00:04.36 bitrate=2881.6kbits/s speed=0.0591x elapsed=0:01:13.90    \nframe=  526 fps=7.1 q=61.0 size=    1536KiB time=00:00:04.38 bitrate=2870.6kbits/s speed=0.0589x elapsed=0:01:14.42    \nframe=  529 fps=7.1 q=60.0 size=    1536KiB time=00:00:04.40 bitrate=2854.3kbits/s speed=0.0588x elapsed=0:01:14.93    \nframe=  532 fps=7.1 q=60.0 size=    1536KiB time=00:00:04.43 bitrate=2838.3kbits/s speed=0.0588x elapsed=0:01:15.45    \nframe=  533 fps=7.0 q=60.0 size=    1536KiB time=00:00:04.44 bitrate=2832.9kbits/s speed=0.0585x elapsed=0:01:15.97    \nframe=  535 fps=7.0 q=60.0 size=    1536KiB time=00:00:04.45 bitrate=2822.3kbits/s speed=0.0583x elapsed=0:01:16.49    \nframe=  538 fps=7.0 q=60.0 size=    1536KiB time=00:00:04.48 bitrate=2806.6kbits/s speed=0.0582x elapsed=0:01:17.02    \nframe=  540 fps=7.0 q=60.0 size=    1536KiB time=00:00:04.50 bitrate=2796.2kbits/s speed=0.058x elapsed=0:01:17.54    \nframe=  543 fps=7.0 q=59.0 size=    1536KiB time=00:00:04.52 bitrate=2780.8kbits/s speed=0.058x elapsed=0:01:18.07    \nframe=  546 fps=6.9 q=59.0 size=    1536KiB time=00:00:04.55 bitrate=2765.5kbits/s speed=0.0579x elapsed=0:01:18.59    \nframe=  547 fps=6.9 q=59.0 size=    1536KiB time=00:00:04.55 bitrate=2760.4kbits/s speed=0.0576x elapsed=0:01:19.12    \nframe=  550 fps=6.9 q=59.0 size=    1536KiB time=00:00:04.58 bitrate=2745.4kbits/s speed=0.0575x elapsed=0:01:19.64    \nframe=  553 fps=6.9 q=59.0 size=    1536KiB time=00:00:04.60 bitrate=2730.5kbits/s speed=0.0575x elapsed=0:01:20.16    \nframe=  555 fps=6.9 q=50.0 size=    1536KiB time=00:00:04.62 bitrate=2720.6kbits/s speed=0.0573x elapsed=0:01:20.68    \nframe=  558 fps=6.9 q=60.0 size=    1536KiB time=00:00:04.65 bitrate=2706.0kbits/s speed=0.0573x elapsed=0:01:21.20    \nframe=  561 fps=6.9 q=60.0 size=    1536KiB time=00:00:04.67 bitrate=2691.5kbits/s speed=0.0572x elapsed=0:01:21.71    \nframe=  563 fps=6.8 q=60.0 size=    1536KiB time=00:00:04.69 bitrate=2682.0kbits/s speed=0.0571x elapsed=0:01:22.22    \nframe=  566 fps=6.8 q=59.0 size=    1536KiB time=00:00:04.71 bitrate=2667.8kbits/s speed=0.057x elapsed=0:01:22.75    \nframe=  568 fps=6.8 q=59.0 size=    1536KiB time=00:00:04.73 bitrate=2658.4kbits/s speed=0.0568x elapsed=0:01:23.27    \nframe=  570 fps=6.8 q=58.0 size=    1536KiB time=00:00:04.75 bitrate=2649.0kbits/s speed=0.0567x elapsed=0:01:23.79    \nframe=  573 fps=6.8 q=57.0 size=    1536KiB time=00:00:04.77 bitrate=2635.2kbits/s speed=0.0566x elapsed=0:01:24.30    \nframe=  576 fps=6.8 q=58.0 size=    1536KiB time=00:00:04.80 bitrate=2621.4kbits/s speed=0.0566x elapsed=0:01:24.82    \nframe=  576 fps=6.7 q=58.0 size=    1536KiB time=00:00:04.80 bitrate=2621.4kbits/s speed=0.0562x elapsed=0:01:25.34    \nframe=  576 fps=6.7 q=58.0 size=    1536KiB time=00:00:04.80 bitrate=2621.4kbits/s speed=0.0559x elapsed=0:01:25.86    \nframe=  576 fps=6.7 q=58.0 size=    1536KiB time=00:00:04.80 bitrate=2621.4kbits/s speed=0.0556x elapsed=0:01:26.37    \nframe=  576 fps=6.6 q=58.0 size=    1536KiB time=00:00:04.80 bitrate=2621.4kbits/s speed=0.0552x elapsed=0:01:26.89    \nframe=  576 fps=6.6 q=58.0 size=    1536KiB time=00:00:04.80 bitrate=2621.4kbits/s speed=0.0549x elapsed=0:01:27.41    \nframe=  576 fps=6.6 q=58.0 size=    1536KiB time=00:00:04.80 bitrate=2621.4kbits/s speed=0.0546x elapsed=0:01:27.93    \nframe=  576 fps=6.5 q=58.0 size=    1536KiB time=00:00:04.80 bitrate=2621.4kbits/s speed=0.0542x elapsed=0:01:28.50    \n[out#0/webm @ 0000026362a09080] video:1940KiB audio:0KiB subtitle:0KiB other streams:0KiB global headers:0KiB muxing overhead: 0.243631%\nframe=  600 fps=6.8 q=55.0 Lsize=    1945KiB time=00:00:05.00 bitrate=3186.3kbits/s speed=0.0564x elapsed=0:01:28.61    \n",
  "seconds": 88.77809190750122,
  "probe_out": {}
}